<svg width="96" height="36" viewBox="0 0 96 36" fill="none" xmlns="http://www.w3.org/2000/svg">
<path d="M16.442 16.2971H13.7901V9.66724L13.1365 9.30418C12.0381 8.69392 10.7256 8.60194 9.55273 9.05304L7.9558 9.66724M7.9558 9.66724V16.2971H10.3425M7.9558 9.66724L7.52895 9.40047C6.4557 8.72968 5.13903 8.57302 3.93834 8.97325L1.85635 9.66724M1.85635 9.66724V16.2971M1.85635 9.66724H0M1.85635 16.2971H4.24309M1.85635 16.2971H0" stroke="black" stroke-width="1.59116"/>
<path d="M38.1266 3.87118L20.4546 0.915894L17.4993 18.5879L35.1713 21.5432C36.7546 22.1314 38.0345 23.9877 38.3457 25.3137L44.7104 21.5432C43.9458 19.7945 41.2141 15.8728 36.4034 14.1756L38.1266 3.87118Z" fill="black"/>
<path d="M38.1266 3.87118L20.4546 0.915894L17.4993 18.5879L35.1713 21.5432C36.7546 22.1314 38.0345 23.9877 38.3457 25.3137L44.7104 21.5432C43.9458 19.7945 41.2141 15.8728 36.4034 14.1756L38.1266 3.87118Z" stroke="white" stroke-width="1.59116"/>
<path d="M30.6603 9.97664C31.9225 11.4234 31.8825 13.5913 30.5679 14.9906C29.0925 16.5609 26.5982 16.5609 25.1228 14.9906C23.8081 13.5913 23.7681 11.4234 25.0303 9.97664C26.5191 8.27024 29.1715 8.27024 30.6603 9.97664Z" stroke="white" stroke-width="1.59116"/>
<path d="M45.8763 13.9485L63.5483 10.9932L66.5036 28.6652L48.8316 31.6205C47.2483 32.2087 45.9683 34.065 45.6571 35.391L39.2925 31.6205C40.057 29.8718 42.7887 25.9501 47.5995 24.2529L45.8763 13.9485Z" fill="black"/>
<path d="M56.611 26.6026C54.1044 26.6026 52.5504 24.7812 52.5504 21.9739C52.5504 19.1666 54.1044 17.3452 56.5441 17.3452C58.8501 17.3452 60.471 19.0162 60.471 21.9906V22.4083H54.0209C54.1211 24.3133 55.0736 25.2658 56.611 25.2658C57.764 25.2658 58.5159 24.6809 58.8167 23.7786L60.3206 23.8955C59.8527 25.483 58.4825 26.6026 56.611 26.6026ZM54.0209 21.1718H58.9337C58.8 19.4674 57.8475 18.682 56.5441 18.682C55.1739 18.682 54.2548 19.5342 54.0209 21.1718Z" fill="white"/>
<path d="M67.4233 26.4021V25.1655H69.7293V18.7823H67.4233V17.5457H70.899L70.9993 19.2668C71.2834 18.1138 72.0186 17.5457 73.1215 17.5457H74.9429V18.8157H73.1382C71.8348 18.8157 71.133 19.601 71.133 21.0548V25.1655H73.9403V26.4021H67.4233Z" fill="black"/>
<path d="M80.9019 29.1091C78.9969 29.1091 77.5598 28.0898 77.1922 26.5357L78.6627 26.4355C78.9301 27.271 79.5316 27.7723 80.9019 27.7723C82.506 27.7723 83.3917 27.1373 83.3917 25.8339V24.3969C82.9572 25.3326 81.9546 25.9342 80.8016 25.9342C78.5457 25.9342 76.9416 24.1629 76.9416 21.6397C76.9416 19.1165 78.5123 17.3452 80.7348 17.3452C81.9713 17.3452 83.0575 17.9635 83.4585 18.9494V17.5457H84.7953V25.8005C84.7953 27.8726 83.3415 29.1091 80.9019 29.1091ZM80.8684 24.5974C82.3891 24.5974 83.375 23.4611 83.3917 21.6397C83.4251 19.8183 82.4058 18.682 80.8684 18.682C79.3144 18.682 78.4121 19.8183 78.4121 21.6397C78.4121 23.4611 79.3478 24.5974 80.8684 24.5974Z" fill="black"/>
<path d="M90.9715 26.6026C88.5152 26.6026 86.9277 24.7979 86.9277 21.9739C86.9277 19.1499 88.5152 17.3452 90.9715 17.3452C93.4112 17.3452 95.0154 19.1499 95.0154 21.9739C95.0154 24.7979 93.4112 26.6026 90.9715 26.6026ZM90.9715 25.2658C92.5924 25.2658 93.5449 24.0292 93.5449 21.9739C93.5449 19.9185 92.5924 18.682 90.9715 18.682C89.3339 18.682 88.3982 19.9185 88.3982 21.9739C88.3982 24.0292 89.3339 25.2658 90.9715 25.2658Z" fill="black"/>
</svg>
